<?xml version="1.0" encoding="utf-8"?>
<!-- Generator: Adobe Illustrator 21.1.0, SVG Export Plug-In . SVG Version: 6.00 Build 0)  -->
<svg version="1.1" xmlns="http://www.w3.org/2000/svg" xmlns:xlink="http://www.w3.org/1999/xlink" x="0px" y="0px"
	 viewBox="0 0 150 150" style="enable-background:new 0 0 150 150;" xml:space="preserve">
<style type="text/css">
	.st0{fill:#5AB9EA;}
	.st1{fill:#FFFFFF;}
</style>
<g id="Layer_1">
	<g>
		<polygon class="st0" points="3.8,2.5 3.8,94.2 75.4,149 147,94.2 147,2.5 76,2 		"/>
	</g>
</g>
<g id="Layer_2">
	<g>
		<path class="st1" d="M108.2,108.8c3.3-3.2,7-5.7,9.1-9.2c1.1-1.8-0.4-5.3-1.2-7.9c-0.7-2.1-3-3.9-3-5.8c-0.1-4.8,4.7-9.6,9.6-10.6
			c6.4-1.3,7.4-2.7,7.2-10.9c-0.1-6.3-1.4-7.9-7.3-8.9c-8.4-1.4-11.3-8.8-6.7-16.1c1.4-2.2,2.5-5.8,1.6-7.9
			c-3.4-8.4-9.9-10-17.4-4.8c-4.3,3-12.7-0.8-13.9-5.9c-0.7-2.9-1.5-6.5-3.6-8.1c-6.2-4.8-15.6-0.5-16.8,7.2
			c-1.1,6.5-9.3,9.8-14.9,6.3c-2.4-1.5-5.9-3.2-8.3-2.6c-8,2-10.4,10.3-5.8,17.1c3.6,5.2,0.1,13.5-6.2,14.6
			c-7.3,1.3-8.6,2.6-8.7,8.6c-0.1,8.8,0.7,10.1,8.2,11.6c7.2,1.4,10.4,9.3,6.2,15.4c-4.1,5.9-3.9,7.3,1.7,12.8
			c5.1,5.1,6.9,5.2,12.5,1.3c6.1-4.2,13.9-0.9,15.4,6.3c0.6,2.6,2,6,4,7.2c7.6,4.1,14.8,0,16.3-8.5c0.9-5.2,9.5-8.8,13.9-5.9
			C102.6,105.5,105,106.8,108.2,108.8z"/>
		<g>
			<path class="st0" d="M73,70.7c-15.6,3.9-19.8,2.6-12.1-12.2c3.3-6.3,6.2-12.7,9.9-18.7c1.5-2.4,4.9-5.2,7.1-5
				c4.8,0.5,3.7,5.1,3.3,8.5c-0.4,3.5-3.8,11.5-4.4,15.6c3.3,0.3,8.9-4.1,11.7-3.7c5,0.7,7.3,3.7,5.1,8.4
				c-4.8,9.9-9.9,19.7-15.4,29.3c-0.9,1.5-4.6,3.1-5.9,2.4c-1.8-0.9-3.4-3.9-3.4-6C69.1,85,72.3,75.4,73,70.7z"/>
		</g>
	</g>
</g>
</svg>
