<?xml version="1.0" encoding="utf-8"?>
<!-- Generator: Adobe Illustrator 21.1.0, SVG Export Plug-In . SVG Version: 6.00 Build 0)  -->
<svg version="1.1" xmlns="http://www.w3.org/2000/svg" xmlns:xlink="http://www.w3.org/1999/xlink" x="0px" y="0px"
	 viewBox="0 0 150 150" style="enable-background:new 0 0 150 150;" xml:space="preserve">
<style type="text/css">
	.st0{fill:#5AB9EA;}
	.st1{fill:#FFFFFF;}
</style>
<g id="Layer_1">
	<g>
		<polygon class="st0" points="3.8,2.5 3.8,94.2 75.4,149 147,94.2 147,2.5 76,2 		"/>
	</g>
</g>
<g id="Layer_2">
	<g>
		<path class="st1" d="M74.5,30.5c-22.8,0-41.3,18.5-41.3,41.3c0,22.8,18.5,41.3,41.3,41.3c22.7,0,41.3-18.5,41.3-41.3
			C115.8,49,97.3,30.5,74.5,30.5z M74.5,102.3C57.7,102.3,44,88.6,44,71.7c0-16.8,13.7-30.5,30.5-30.5c16.8,0,30.5,13.7,30.5,30.5
			C105.1,88.6,91.4,102.3,74.5,102.3z"/>
		<polygon class="st1" points="87.7,49.8 60.1,74.6 72,74.6 61.4,93.7 88.8,69.6 76.5,69.6 		"/>
		<polygon class="st1" points="68.6,26.8 80.5,26.8 80.5,20.9 86.4,20.9 86.4,9 62.7,9 62.7,20.9 68.6,20.9 		"/>
		<polygon class="st1" points="118.8,34.7 111.2,27.2 103.6,34.7 111.2,42.3 		"/>
		
			<rect x="32.8" y="29.4" transform="matrix(0.7074 -0.7068 0.7068 0.7074 -13.4056 37.1155)" class="st1" width="10.7" height="10.7"/>
	</g>
</g>
</svg>
