<?xml version="1.0" encoding="utf-8"?>
<!-- Generator: Adobe Illustrator 21.1.0, SVG Export Plug-In . SVG Version: 6.00 Build 0)  -->
<svg version="1.1" xmlns="http://www.w3.org/2000/svg" xmlns:xlink="http://www.w3.org/1999/xlink" x="0px" y="0px"
	 viewBox="0 0 150 150" style="enable-background:new 0 0 150 150;" xml:space="preserve">
<style type="text/css">
	.st0{fill:#5AB9EA;}
	.st1{fill:#FFFFFF;}
</style>
<g id="Layer_1">
	<g>
		<polygon class="st0" points="3.8,2.5 3.8,94.2 75.4,149 147,94.2 147,2.5 76,2 		"/>
	</g>
</g>
<g id="Layer_2">
	<g>
		<path class="st1" d="M41.3,89.7c4.4-4.8,9.4-2.9,16.1-1.9c5.7,0.9,5.9,1.5,5.5-1.6c-0.6-5-1.4-7.3-3.3-13.8
			c-1.5-5.2-4.4-14.5-7-23.4c-3.5-11.9-4.5-17.4,0.1-18.8c5-1.5,7.9,5.7,10.6,15.6c3,11.3,4.6,16.3,5.4,16c1.5-0.4-0.6-5.3,3.5-6.5
			c5.1-1.5,6,2.5,7.5,2.1c1.4-0.4,0.9-4.4,5-5.6c4.1-1.2,6.1,3.8,7.8,3.3c1.7-0.5,1.6-2.3,4.1-3c2.5-0.7,11.9,3.5,17.3,21.9
			c6.8,23.2-0.9,27.5,1.5,35.4L85.1,121c-2.4-5.9-10-6.3-16.7-10.1c-6.8-3.8-5.9-13.5-23.5-13.1C38.3,97.9,38.6,92.7,41.3,89.7z"/>
	</g>
	<g>
		<g>
			<path class="st1" d="M52.9,8.2c-1,0-1.7,0.8-1.7,1.7v10.3c0,1,0.8,1.7,1.7,1.7c1,0,1.7-0.8,1.7-1.7V9.9C54.6,9,53.8,8.2,52.9,8.2
				z"/>
		</g>
	</g>
	<g>
		<g>
			<path class="st1" d="M39.1,32.3H28.8c-1,0-1.7,0.8-1.7,1.7s0.8,1.7,1.7,1.7h10.3c1,0,1.7-0.8,1.7-1.7S40,32.3,39.1,32.3z"/>
		</g>
	</g>
	<g>
		<g>
			<path class="st1" d="M77,32.3H66.6c-1,0-1.7,0.8-1.7,1.7s0.8,1.7,1.7,1.7H77c1,0,1.7-0.8,1.7-1.7S77.9,32.3,77,32.3z"/>
		</g>
	</g>
	<g>
		<g>
			<path class="st1" d="M44.3,23.1L37,15.8c-0.7-0.7-1.8-0.7-2.4,0c-0.7,0.7-0.7,1.8,0,2.4l7.3,7.3c0.3,0.3,0.8,0.5,1.2,0.5
				c0.4,0,0.9-0.2,1.2-0.5C45,24.8,45,23.8,44.3,23.1z"/>
		</g>
	</g>
	<g>
		<g>
			<path class="st1" d="M44.3,42.6c-0.7-0.7-1.8-0.7-2.4,0l-7.3,7.3c-0.7,0.7-0.7,1.8,0,2.4c0.3,0.3,0.8,0.5,1.2,0.5
				s0.9-0.2,1.2-0.5l7.3-7.3C45,44.3,45,43.2,44.3,42.6z"/>
		</g>
	</g>
	<g>
		<g>
			<path class="st1" d="M71.1,15.8c-0.7-0.7-1.8-0.7-2.4,0l-7.3,7.3c-0.7,0.7-0.7,1.8,0,2.4c0.3,0.3,0.8,0.5,1.2,0.5
				c0.4,0,0.9-0.2,1.2-0.5l7.3-7.3C71.8,17.5,71.8,16.5,71.1,15.8z"/>
		</g>
	</g>
</g>
</svg>
