<?xml version="1.0" encoding="utf-8"?>
<!-- Generator: Adobe Illustrator 21.1.0, SVG Export Plug-In . SVG Version: 6.00 Build 0)  -->
<svg version="1.1" xmlns="http://www.w3.org/2000/svg" xmlns:xlink="http://www.w3.org/1999/xlink" x="0px" y="0px"
	 viewBox="0 0 80 60" style="enable-background:new 0 0 80 60;" xml:space="preserve">
<style type="text/css">
	.st0{fill:#343A40;}
	.st1{fill:#EDEDED;}
</style>
<g id="Layer_2">
	<rect class="st0" width="80" height="60"/>
</g>
<g id="Layer_1">
	<g>
		<path class="st1" d="M42.6,1.5v36.7c0,7.6-1.6,13-4.7,16.2c-3.2,3.1-7.7,4.7-13.7,4.7c-3.8,0-7.1-0.5-9.7-1.5
			c-2.6-1-5-2.6-7.2-4.8l6.3-6.8c0.9,0.9,2.3,1.7,4.1,2.3c1.8,0.6,4,0.9,6.3,0.9c2.4,0,4.2-0.6,5.5-1.7c1.3-1.1,1.9-3.3,1.9-6.5V1.5
			H42.6z"/>
	</g>
	<g>
		<path class="st1" d="M58.6,8.8v1.2c0,2.8-0.5,4.8-1.6,6c-1,1.2-2.7,1.9-5,1.9c-2.3,0-4-0.6-5-1.9c-1-1.2-1.5-3.3-1.5-6.1V8.8
			c0-2.6,0.5-4.5,1.6-5.7c1-1.2,2.7-1.9,4.9-1.9c2.3,0,3.9,0.6,5,1.9C58.1,4.4,58.6,6.3,58.6,8.8z M55.4,10V9.1
			c0-1.5-0.2-2.7-0.6-3.5c-0.4-1-1.4-1.5-2.8-1.5c-1.4,0-2.4,0.5-2.8,1.5c-0.4,0.8-0.5,2-0.5,3.5V10c0,2,0.3,3.3,0.8,4
			c0.2,0.3,0.5,0.5,1,0.8c0.4,0.2,0.9,0.3,1.5,0.3c0.6,0,1.1-0.1,1.5-0.3c0.4-0.2,0.7-0.4,1-0.7c0.2-0.3,0.4-0.7,0.5-1.2
			C55.3,12.1,55.4,11.2,55.4,10z"/>
	</g>
	<g>
		<path class="st1" d="M57.7,33.5c0,1.6-0.6,2.8-1.7,3.7c-1.1,0.9-2.6,1.3-4.4,1.3c-1.4,0-2.8-0.4-4.1-1.2c-0.6-0.4-1.2-1-1.6-1.7
			s-0.6-1.6-0.6-2.5l2.9-0.1c0,0.8,0.4,1.5,1.1,1.9s1.5,0.7,2.4,0.7c1.9,0,2.9-0.7,2.9-2c0-1.1-0.7-1.8-2-2l-2.7-0.3
			c-1.3-0.2-2.4-0.7-3.2-1.4c-0.8-0.8-1.2-1.8-1.2-3.3s0.6-2.6,1.7-3.5s2.5-1.4,4.3-1.4c1.7,0,3.1,0.4,4.1,1.3c1,0.9,1.6,2,1.6,3.4
			l-2.9,0.1c-0.3-1.3-1.2-2-2.7-2c-0.9,0-1.7,0.2-2.2,0.6c-0.5,0.4-0.8,0.9-0.8,1.4s0.2,1,0.6,1.3c0.4,0.3,0.9,0.5,1.4,0.6l2.6,0.3
			C56.2,29.1,57.7,30.7,57.7,33.5z"/>
	</g>
	<g>
		<path class="st1" d="M58.8,58.9h-3.2v-6.7h-6v6.7h-3.2V42.4h3.2v7h6v-7h3.2V58.9z"/>
	</g>
</g>
</svg>
