<?xml version="1.0" encoding="utf-8"?>
<!-- Generator: Adobe Illustrator 21.1.0, SVG Export Plug-In . SVG Version: 6.00 Build 0)  -->
<svg version="1.1" xmlns="http://www.w3.org/2000/svg" xmlns:xlink="http://www.w3.org/1999/xlink" x="0px" y="0px"
	 viewBox="0 0 150 150" style="enable-background:new 0 0 150 150;" xml:space="preserve">
<style type="text/css">
	.st0{fill:#5AB9EA;}
	.st1{fill:#FFFFFF;}
</style>
<g id="Layer_1">
	<g>
		<polygon class="st0" points="3.8,2.5 3.8,94.2 75.4,149 147,94.2 147,2.5 76,2 		"/>
	</g>
</g>
<g id="Layer_2">
	<path class="st1" d="M109.5,75.7H23c-3.3,0-6-2.7-6-6V15.4c0-3.3,2.7-6,6-6h104c3.3,0,6,2.7,6,6v24.1l-4.8-0.1V12.9h-106v52.2h87.5
		l0.1,10.3v0.5"/>
	<g>
		<circle class="st0" cx="75.3" cy="70.4" r="2.3"/>
	</g>
	<g>
		<path class="st1" d="M126,80.5h-2.8c-6.6,0-12-5.4-12-12v-15c0-6.6,5.4-12,12-12h2.8c6.6,0,12,5.4,12,12v15
			C138,75.1,132.6,80.5,126,80.5z"/>
	</g>
	<g>
		<ellipse class="st0" cx="124.4" cy="77.4" rx="1.4" ry="1.3"/>
	</g>
	<g>
		<rect x="113.8" y="46.9" class="st0" width="21.3" height="26.6"/>
	</g>
	<g>
		<polygon class="st1" points="86.6,79.2 64.9,79.2 54,95.5 64.9,95.3 86.6,95.3 97.5,95.5 		"/>
	</g>
</g>
</svg>
